<svg xmlns="http://www.w3.org/2000/svg" width="1280" height="640" viewBox="0 0 1280 640"
     role="img" aria-label="agentseam — the primitives layer for every coding agent: one handler API over per-agent hooks, instruction files, plugin packaging, and config. 12 adapters (claude_code, antigravity, codex_cli, cursor, devin, gemini_cli, grok, junie, kimi_code, tabnine, vscode_copilot, windsurf); 12 normalized events (pre_tool, post_tool, tool_failure, prompt_submit, session_start, session_end, subagent_start, subagent_stop, instructions_loaded, file_changed, pre_compact, stop); 6 decision outcomes (allow, deny, escalate, transform, warn, vouch); and the 5 honest enforcement levels a consumer may claim (enforced, enforceable, best-effort, detect, none). 16 agents in the capability matrix, 12 adapted, zero dependencies, Apache-2.0, version 0.2.1.">
  <rect width="1280" height="640" fill="#0D1626"/>
  <rect x="45.0" y="39.0" width="38" height="38" rx="8.4" fill="#111E33"/>
  <line x1="51.1" y1="45.5" x2="64.0" y2="50.4" stroke="#D9B45C" stroke-width="1.33" stroke-opacity="0.55" stroke-linecap="round"/>
  <line x1="64.0" y1="50.4" x2="76.9" y2="50.4" stroke="#D9B45C" stroke-width="1.71" stroke-opacity="0.95" stroke-linecap="round"/>
  <line x1="54.5" y1="61.1" x2="64.0" y2="58.0" stroke="#D9B45C" stroke-width="1.33" stroke-opacity="0.55" stroke-linecap="round"/>
  <line x1="64.0" y1="58.0" x2="76.9" y2="58.0" stroke="#D9B45C" stroke-width="1.71" stroke-opacity="0.95" stroke-linecap="round"/>
  <line x1="52.3" y1="70.5" x2="64.0" y2="65.6" stroke="#D9B45C" stroke-width="1.33" stroke-opacity="0.55" stroke-linecap="round"/>
  <line x1="64.0" y1="65.6" x2="76.9" y2="65.6" stroke="#D9B45C" stroke-width="1.71" stroke-opacity="0.95" stroke-linecap="round"/>
  <line x1="64.0" y1="48.1" x2="64.0" y2="67.9" stroke="#D9B45C" stroke-width="1.71" stroke-opacity="0.42"/>
  <rect x="61.9" y="48.3" width="4.2" height="4.2" transform="rotate(45 64.0 50.4)" fill="#D9B45C"/>
  <rect x="61.9" y="55.9" width="4.2" height="4.2" transform="rotate(45 64.0 58.0)" fill="#D9B45C"/>
  <rect x="61.9" y="63.5" width="4.2" height="4.2" transform="rotate(45 64.0 65.6)" fill="#D9B45C"/>
  <text x="90" y="64" font-family="Geist Mono" font-size="19" font-weight="700" letter-spacing="-0.4" fill="#D9B45C">agentseam</text>
  <text x="206" y="64" font-family="Geist Mono" font-size="12" fill="#5A6B80">open-coder-ai/agentseam</text>
  <rect x="1042" y="44" width="190" height="27" rx="13" fill="#111E33" stroke="#D9B45C" stroke-opacity="0.22"/>
  <circle cx="1062" cy="57.5" r="3.2" fill="#D9B45C"/>
  <text x="1074" y="62" font-family="Geist Mono" font-size="11" letter-spacing="0.2" fill="#D9B45C">v0.2.1 · APACHE-2.0</text>
  <line x1="48" y1="92" x2="1232" y2="92" stroke="#D9B45C" stroke-opacity="0.13" stroke-width="1"/>
  <text x="48" y="140" font-family="Geist Mono" font-size="10.5" letter-spacing="3.4" fill="#8A7340">— THE PRIMITIVES LAYER</text>
  <text x="48" y="190" font-family="Geist Mono" font-size="33" font-weight="700" letter-spacing="-1.2" fill="#E8EEF6">One handler API for</text>
  <text x="48" y="230" font-family="Geist Mono" font-size="33" font-weight="700" letter-spacing="-1.2" fill="#D9B45C">every coding agent.</text>
  <text x="48" y="276" font-family="Geist Mono" font-size="13" fill="#9FB0C4">Every agent invented its own hook system —</text>
  <text x="48" y="298" font-family="Geist Mono" font-size="13" fill="#9FB0C4">different events, payloads, ways to say no.</text>
  <text x="48" y="320" font-family="Geist Mono" font-size="13" fill="#9FB0C4">agentseam is the layer underneath.</text>
  <text x="48" y="372" font-family="Geist Mono" font-size="10.5" letter-spacing="3.4" fill="#8A7340">THE WHOLE API</text>
  <rect x="48" y="386" width="410" height="72" rx="9" fill="#111E33" stroke="#D9B45C" stroke-opacity="0.16"/>
  <text x="66" y="412" font-family="Geist Mono" font-size="12.5" fill="#9FB0C4">from agentseam import run, Decision</text>
  <text x="66" y="436" font-family="Geist Mono" font-size="12.5" fill="#D9B45C">run(handler)</text>
  <text x="48" y="498" font-family="Geist Mono" font-size="10.5" letter-spacing="1.55" fill="#8A7340">DEGRADES HONESTLY — CLAIMS NEVER EXCEED THE MATRIX</text>
  <rect x="506" y="118" width="230" height="378" rx="10" fill="#111E33" stroke="#D9B45C" stroke-opacity="0.16" stroke-width="1"/>
  <circle cx="526" cy="143" r="2.6" fill="#D9B45C" fill-opacity="0.9"/>
  <text x="536" y="147" font-family="Geist Mono" font-size="11" font-weight="700" letter-spacing="2.3" fill="#D9B45C">ADAPTERS</text>
  <text x="719" y="147" font-family="Geist Mono" font-size="14" font-weight="700" text-anchor="end" fill="#D9B45C">12</text>
  <line x1="523" y1="158" x2="719" y2="158" stroke="#D9B45C" stroke-opacity="0.14" stroke-width="1" stroke-dasharray="2 3"/>
  <circle cx="526" cy="175" r="1.7" fill="#9FB0C4" fill-opacity="0.5"/>
  <text x="536" y="179" font-family="Geist Mono" font-size="12.5" fill="#E8EEF6">claude_code</text>
  <circle cx="526" cy="201" r="1.7" fill="#9FB0C4" fill-opacity="0.5"/>
  <text x="536" y="205" font-family="Geist Mono" font-size="12.5" fill="#9FB0C4">antigravity</text>
  <circle cx="526" cy="227" r="1.7" fill="#9FB0C4" fill-opacity="0.5"/>
  <text x="536" y="231" font-family="Geist Mono" font-size="12.5" fill="#9FB0C4">codex_cli</text>
  <circle cx="526" cy="253" r="1.7" fill="#9FB0C4" fill-opacity="0.5"/>
  <text x="536" y="257" font-family="Geist Mono" font-size="12.5" fill="#9FB0C4">cursor</text>
  <circle cx="526" cy="279" r="1.7" fill="#9FB0C4" fill-opacity="0.5"/>
  <text x="536" y="283" font-family="Geist Mono" font-size="12.5" fill="#9FB0C4">devin</text>
  <circle cx="526" cy="305" r="1.7" fill="#9FB0C4" fill-opacity="0.5"/>
  <text x="536" y="309" font-family="Geist Mono" font-size="12.5" fill="#9FB0C4">gemini_cli</text>
  <circle cx="526" cy="331" r="1.7" fill="#9FB0C4" fill-opacity="0.5"/>
  <text x="536" y="335" font-family="Geist Mono" font-size="12.5" fill="#9FB0C4">grok</text>
  <circle cx="526" cy="357" r="1.7" fill="#9FB0C4" fill-opacity="0.5"/>
  <text x="536" y="361" font-family="Geist Mono" font-size="12.5" fill="#9FB0C4">junie</text>
  <circle cx="526" cy="383" r="1.7" fill="#9FB0C4" fill-opacity="0.5"/>
  <text x="536" y="387" font-family="Geist Mono" font-size="12.5" fill="#9FB0C4">kimi_code</text>
  <circle cx="526" cy="409" r="1.7" fill="#9FB0C4" fill-opacity="0.5"/>
  <text x="536" y="413" font-family="Geist Mono" font-size="12.5" fill="#9FB0C4">tabnine</text>
  <circle cx="526" cy="435" r="1.7" fill="#9FB0C4" fill-opacity="0.5"/>
  <text x="536" y="439" font-family="Geist Mono" font-size="12.5" fill="#9FB0C4">vscode_copilot</text>
  <circle cx="526" cy="461" r="1.7" fill="#9FB0C4" fill-opacity="0.5"/>
  <text x="536" y="465" font-family="Geist Mono" font-size="12.5" fill="#9FB0C4">windsurf</text>
  <rect x="754" y="118" width="230" height="378" rx="10" fill="#111E33" stroke="#D9B45C" stroke-opacity="0.16" stroke-width="1"/>
  <circle cx="774" cy="143" r="2.6" fill="#D9B45C" fill-opacity="0.9"/>
  <text x="784" y="147" font-family="Geist Mono" font-size="11" font-weight="700" letter-spacing="2.3" fill="#D9B45C">EVENTS</text>
  <text x="967" y="147" font-family="Geist Mono" font-size="14" font-weight="700" text-anchor="end" fill="#D9B45C">12</text>
  <line x1="771" y1="158" x2="967" y2="158" stroke="#D9B45C" stroke-opacity="0.14" stroke-width="1" stroke-dasharray="2 3"/>
  <circle cx="774" cy="175" r="1.7" fill="#9FB0C4" fill-opacity="0.5"/>
  <text x="784" y="179" font-family="Geist Mono" font-size="12.5" fill="#E8EEF6">pre_tool</text>
  <circle cx="774" cy="201" r="1.7" fill="#9FB0C4" fill-opacity="0.5"/>
  <text x="784" y="205" font-family="Geist Mono" font-size="12.5" fill="#9FB0C4">post_tool</text>
  <circle cx="774" cy="227" r="1.7" fill="#9FB0C4" fill-opacity="0.5"/>
  <text x="784" y="231" font-family="Geist Mono" font-size="12.5" fill="#9FB0C4">tool_failure</text>
  <circle cx="774" cy="253" r="1.7" fill="#9FB0C4" fill-opacity="0.5"/>
  <text x="784" y="257" font-family="Geist Mono" font-size="12.5" fill="#9FB0C4">prompt_submit</text>
  <circle cx="774" cy="279" r="1.7" fill="#9FB0C4" fill-opacity="0.5"/>
  <text x="784" y="283" font-family="Geist Mono" font-size="12.5" fill="#9FB0C4">session_start</text>
  <circle cx="774" cy="305" r="1.7" fill="#9FB0C4" fill-opacity="0.5"/>
  <text x="784" y="309" font-family="Geist Mono" font-size="12.5" fill="#9FB0C4">session_end</text>
  <circle cx="774" cy="331" r="1.7" fill="#9FB0C4" fill-opacity="0.5"/>
  <text x="784" y="335" font-family="Geist Mono" font-size="12.5" fill="#9FB0C4">subagent_start</text>
  <circle cx="774" cy="357" r="1.7" fill="#9FB0C4" fill-opacity="0.5"/>
  <text x="784" y="361" font-family="Geist Mono" font-size="12.5" fill="#9FB0C4">subagent_stop</text>
  <circle cx="774" cy="383" r="1.7" fill="#9FB0C4" fill-opacity="0.5"/>
  <text x="784" y="387" font-family="Geist Mono" font-size="12.5" fill="#9FB0C4">instructions_loaded</text>
  <circle cx="774" cy="409" r="1.7" fill="#9FB0C4" fill-opacity="0.5"/>
  <text x="784" y="413" font-family="Geist Mono" font-size="12.5" fill="#9FB0C4">file_changed</text>
  <circle cx="774" cy="435" r="1.7" fill="#9FB0C4" fill-opacity="0.5"/>
  <text x="784" y="439" font-family="Geist Mono" font-size="12.5" fill="#9FB0C4">pre_compact</text>
  <circle cx="774" cy="461" r="1.7" fill="#9FB0C4" fill-opacity="0.5"/>
  <text x="784" y="465" font-family="Geist Mono" font-size="12.5" fill="#9FB0C4">stop</text>
  <rect x="1002" y="118" width="230" height="378" rx="10" fill="#111E33" stroke="#D9B45C" stroke-opacity="0.16" stroke-width="1"/>
  <circle cx="1022" cy="143" r="2.6" fill="#D9B45C" fill-opacity="0.9"/>
  <text x="1032" y="147" font-family="Geist Mono" font-size="11" font-weight="700" letter-spacing="2.3" fill="#D9B45C">DECISIONS</text>
  <text x="1215" y="147" font-family="Geist Mono" font-size="14" font-weight="700" text-anchor="end" fill="#D9B45C">6</text>
  <line x1="1019" y1="158" x2="1215" y2="158" stroke="#D9B45C" stroke-opacity="0.14" stroke-width="1" stroke-dasharray="2 3"/>
  <circle cx="1022" cy="175" r="1.7" fill="#9FB0C4" fill-opacity="0.5"/>
  <text x="1032" y="179" font-family="Geist Mono" font-size="12.5" fill="#E8EEF6">allow</text>
  <circle cx="1022" cy="201" r="1.7" fill="#9FB0C4" fill-opacity="0.5"/>
  <text x="1032" y="205" font-family="Geist Mono" font-size="12.5" fill="#9FB0C4">deny</text>
  <circle cx="1022" cy="227" r="1.7" fill="#9FB0C4" fill-opacity="0.5"/>
  <text x="1032" y="231" font-family="Geist Mono" font-size="12.5" fill="#9FB0C4">escalate</text>
  <circle cx="1022" cy="253" r="1.7" fill="#9FB0C4" fill-opacity="0.5"/>
  <text x="1032" y="257" font-family="Geist Mono" font-size="12.5" fill="#9FB0C4">transform</text>
  <circle cx="1022" cy="279" r="1.7" fill="#9FB0C4" fill-opacity="0.5"/>
  <text x="1032" y="283" font-family="Geist Mono" font-size="12.5" fill="#9FB0C4">warn</text>
  <circle cx="1022" cy="305" r="1.7" fill="#9FB0C4" fill-opacity="0.5"/>
  <text x="1032" y="309" font-family="Geist Mono" font-size="12.5" fill="#9FB0C4">vouch</text>
  <circle cx="1022" cy="351" r="2.6" fill="#D9B45C" fill-opacity="0.9"/>
  <text x="1032" y="355" font-family="Geist Mono" font-size="11" font-weight="700" letter-spacing="2.3" fill="#D9B45C">ENFORCEMENT</text>
  <text x="1215" y="355" font-family="Geist Mono" font-size="14" font-weight="700" text-anchor="end" fill="#D9B45C">5</text>
  <line x1="1019" y1="366" x2="1215" y2="366" stroke="#D9B45C" stroke-opacity="0.14" stroke-width="1" stroke-dasharray="2 3"/>
  <circle cx="1022" cy="383" r="1.7" fill="#9FB0C4" fill-opacity="0.5"/>
  <text x="1032" y="387" font-family="Geist Mono" font-size="12.5" fill="#E8EEF6">enforced</text>
  <circle cx="1022" cy="409" r="1.7" fill="#9FB0C4" fill-opacity="0.5"/>
  <text x="1032" y="413" font-family="Geist Mono" font-size="12.5" fill="#9FB0C4">enforceable</text>
  <circle cx="1022" cy="435" r="1.7" fill="#9FB0C4" fill-opacity="0.5"/>
  <text x="1032" y="439" font-family="Geist Mono" font-size="12.5" fill="#9FB0C4">best-effort</text>
  <circle cx="1022" cy="461" r="1.7" fill="#9FB0C4" fill-opacity="0.5"/>
  <text x="1032" y="465" font-family="Geist Mono" font-size="12.5" fill="#9FB0C4">detect</text>
  <circle cx="1022" cy="487" r="1.7" fill="#9FB0C4" fill-opacity="0.5"/>
  <text x="1032" y="491" font-family="Geist Mono" font-size="12.5" fill="#9FB0C4">none</text>
  <line x1="48" y1="560" x2="1232" y2="560" stroke="#D9B45C" stroke-opacity="0.13" stroke-width="1"/>
  <text x="48" y="590" font-family="Geist Mono" font-size="15" font-weight="700" fill="#D9B45C">16</text>
  <text x="72" y="590" font-family="Geist Mono" font-size="10.5" letter-spacing="1.6" fill="#5A6B80">AGENTS IN MATRIX</text>
  <text x="212" y="590" font-family="Geist Mono" font-size="15" font-weight="700" fill="#D9B45C">12</text>
  <text x="236" y="590" font-family="Geist Mono" font-size="10.5" letter-spacing="1.6" fill="#5A6B80">ADAPTED</text>
  <text x="320" y="590" font-family="Geist Mono" font-size="15" font-weight="700" fill="#D9B45C">12</text>
  <text x="344" y="590" font-family="Geist Mono" font-size="10.5" letter-spacing="1.6" fill="#5A6B80">NORMALIZED EVENTS</text>
  <text x="494" y="590" font-family="Geist Mono" font-size="15" font-weight="700" fill="#D9B45C">0</text>
  <text x="512" y="590" font-family="Geist Mono" font-size="10.5" letter-spacing="1.6" fill="#5A6B80">DEPENDENCIES</text>
  <text x="1232" y="590" font-family="Geist Mono" font-size="10.5" letter-spacing="1.4" text-anchor="end" fill="#5A6B80">PYTHON 3.9–3.13 · STDLIB ONLY · PYPI: agentseam</text>
</svg>